<?xml version="1.0" encoding="UTF-8" standalone="no"?>
<svg
   height="24"
   width="24"
   viewBox="-37.5 -62.5 6.5 11.25"
   version="1.1"
   id="svg8"
   sodipodi:docname="TikTok-Logo.wine.svg"
   inkscape:export-filename="tiktok_logo_24pt.png"
   inkscape:export-xdpi="96"
   inkscape:export-ydpi="96"
   inkscape:version="1.3.2 (091e20e, 2023-11-25)"
   xmlns:inkscape="http://www.inkscape.org/namespaces/inkscape"
   xmlns:sodipodi="http://sodipodi.sourceforge.net/DTD/sodipodi-0.dtd"
   xmlns="http://www.w3.org/2000/svg"
   xmlns:svg="http://www.w3.org/2000/svg">
  <defs
     id="defs8" />
  <sodipodi:namedview
     id="namedview8"
     pagecolor="#505050"
     bordercolor="#eeeeee"
     borderopacity="1"
     inkscape:showpageshadow="0"
     inkscape:pageopacity="0"
     inkscape:pagecheckerboard="0"
     inkscape:deskcolor="#505050"
     inkscape:export-bgcolor="#ffffff00"
     inkscape:zoom="8.9168341"
     inkscape:cx="-5.3830765"
     inkscape:cy="19.289357"
     inkscape:window-width="1376"
     inkscape:window-height="846"
     inkscape:window-x="0"
     inkscape:window-y="38"
     inkscape:window-maximized="0"
     inkscape:current-layer="svg8" />
  <path
     clip-rule="evenodd"
     d="m -37.625,-61.09375 h 6.75 c 0.46602,0 0.84375,0.37773 0.84375,0.84375 v 6.75 c 0,0.46602 -0.37773,0.84375 -0.84375,0.84375 h -6.75 c -0.46602,0 -0.84375,-0.37773 -0.84375,-0.84375 v -6.75 c 0,-0.46602 0.37773,-0.84375 0.84375,-0.84375 z"
     fill-rule="evenodd"
     fill="#010101"
     id="path1"
     style="stroke-width:0.03375"
     sodipodi:insensitive="true" />
  <path
     clip-rule="evenodd"
     d="m -33.09816,-57.670285 c 0.36936,0.263892 0.82188,0.419175 1.31058,0.419175 v -0.939971 a 1.325025,1.325025 0 0 1 -0.27523,-0.02879 v 0.739902 c -0.48867,0 -0.94112,-0.155284 -1.31058,-0.419175 v 1.918181 c 0,0.95958 -0.77828,1.737416 -1.7383,1.737416 -0.35819,0 -0.69113,-0.108236 -0.96771,-0.293861 0.31566,0.322582 0.75586,0.52272 1.24287,0.52272 0.96009,0 1.7384,-0.777836 1.7384,-1.73745 v -1.918148 z m 0.33952,-0.948307 c -0.18876,-0.206111 -0.31269,-0.4725 -0.33952,-0.767003 v -0.120892 h -0.26082 c 0.0656,0.374287 0.28957,0.694069 0.60034,0.887895 z m -2.71357,3.344861 a 0.79126875,0.79126875 0 0 1 -0.1622,-0.48114 c 0,-0.438885 0.356,-0.794711 0.79519,-0.794711 a 0.7965,0.7965 0 0 1 0.24121,0.03723 v -0.960964 a 1.7539875,1.7539875 0 0 0 -0.27513,-0.01583 v 0.747967 a 0.79714125,0.79714125 0 0 0 -0.24132,-0.03723 c -0.43918,0 -0.79515,0.355826 -0.79515,0.794745 0,0.310331 0.17793,0.579049 0.4374,0.709931 z"
     fill-rule="evenodd"
     fill="#ee1d52"
     id="path5"
     style="stroke-width:0.03375" />
  <path
     clip-rule="evenodd"
     d="m -33.37339,-57.899143 c 0.36946,0.263891 0.82191,0.419175 1.31058,0.419175 v -0.739902 c -0.27277,-0.05805 -0.51425,-0.200542 -0.69583,-0.398722 -0.31077,-0.193826 -0.5347,-0.513608 -0.60034,-0.887895 h -0.68509 v 3.754316 c -0.002,0.43767 -0.35694,0.792045 -0.79519,0.792045 -0.25825,0 -0.48769,-0.123019 -0.63298,-0.313605 -0.25947,-0.130882 -0.4374,-0.3996 -0.4374,-0.709931 0,-0.438919 0.35596,-0.794745 0.79515,-0.794745 0.0841,0 0.16524,0.01309 0.24131,0.03723 v -0.747967 c -0.94314,0.01947 -1.70167,0.789716 -1.70167,1.737011 0,0.472871 0.1889,0.901564 0.49545,1.214764 0.27658,0.185625 0.60952,0.293861 0.96771,0.293861 0.96002,0 1.7383,-0.77787 1.7383,-1.737416 z"
     fill-rule="evenodd"
     fill="#ffffff"
     id="path6"
     style="stroke-width:0.03375" />
  <path
     clip-rule="evenodd"
     d="m -31.92518,-58.21987 v -0.20007 a 1.31085,1.31085 0 0 1 -0.69583,-0.198686 1.314495,1.314495 0 0 0 0.69583,0.398756 z m -1.29617,-1.286617 a 1.333935,1.333935 0 0 1 -0.0144,-0.107933 v -0.120892 h -0.94595 v 3.75435 c -0.002,0.437636 -0.35687,0.792011 -0.79515,0.792011 -0.12869,0 -0.25015,-0.03051 -0.35775,-0.08478 0.14529,0.190586 0.37473,0.313605 0.63298,0.313605 0.43821,0 0.79363,-0.354375 0.79519,-0.792045 v -3.754316 z m -1.51416,2.017339 v -0.212997 a 1.7539875,1.7539875 0 0 0 -0.23851,-0.01617 c -0.96012,0 -1.7384,0.77787 -1.7384,1.737349 0,0.60156 0.30588,1.131705 0.77068,1.443555 -0.30655,-0.3132 -0.49545,-0.741893 -0.49545,-1.214764 0,-0.947261 0.7585,-1.717504 1.70168,-1.736977 z"
     fill-rule="evenodd"
     fill="#69c9d0"
     id="path7"
     style="stroke-width:0.03375" />
</svg>
