<?xml version="1.0" encoding="UTF-8" standalone="no"?>
<svg
   width="24"
   height="24"
   version="1.1"
   id="svg9"
   xmlns:xlink="http://www.w3.org/1999/xlink"
   xmlns="http://www.w3.org/2000/svg"
   xmlns:svg="http://www.w3.org/2000/svg">
  <defs
     id="defs7">
    <linearGradient
       id="b">
      <stop
         offset="0"
         stop-color="#3771c8"
         id="stop1" />
      <stop
         stop-color="#3771c8"
         offset=".128"
         id="stop2" />
      <stop
         offset="1"
         stop-color="#60f"
         stop-opacity="0"
         id="stop3" />
    </linearGradient>
    <linearGradient
       id="a">
      <stop
         offset="0"
         stop-color="#fd5"
         id="stop4" />
      <stop
         offset=".1"
         stop-color="#fd5"
         id="stop5" />
      <stop
         offset=".5"
         stop-color="#ff543e"
         id="stop6" />
      <stop
         offset="1"
         stop-color="#c837ab"
         id="stop7" />
    </linearGradient>
    <radialGradient
       id="c"
       cx="158.429"
       cy="578.08801"
       r="65"
       xlink:href="#a"
       gradientUnits="userSpaceOnUse"
       gradientTransform="matrix(0,-0.27437644,0.25526127,0,-139.78219,65.852735)"
       fx="158.429"
       fy="578.08801" />
    <radialGradient
       id="d"
       cx="147.694"
       cy="473.45499"
       r="65"
       xlink:href="#b"
       gradientUnits="userSpaceOnUse"
       gradientTransform="matrix(0.02407947,0.12026171,-0.49584836,0.09928319,231.19041,-60.469265)"
       fx="147.694"
       fy="473.45499" />
  </defs>
  <path
     fill="url(#c)"
     d="m 12.002941,3.0024535 c -3.7574176,0 -4.8563188,0.00388 -5.0699248,0.021596 C 6.1619304,3.0881451 5.6821128,3.209553 5.1593803,3.4698118 4.7565329,3.6698511 4.4388235,3.9017307 4.125267,4.2267773 3.5542204,4.8195582 3.2081316,5.5488365 3.0828475,6.4157197 c -0.060912,0.420844 -0.078631,0.5066741 -0.082231,2.6563008 -0.00138,0.7165424 0,1.6595645 0,2.9244505 0,3.754371 0.00416,4.852165 0.02215,5.065355 0.062296,0.750321 0.1799662,1.222386 0.4291502,1.73875 0.4762182,0.98843 1.3857396,1.730446 2.4572305,2.007316 0.3710072,0.09552 0.7807764,0.148126 1.3068313,0.173044 0.2228812,0.0097 2.4946081,0.01661 4.7677195,0.01661 2.273111,0 4.546222,-0.0028 4.763566,-0.01384 0.609116,-0.02866 0.962819,-0.07614 1.353899,-0.177199 1.078414,-0.278255 1.971322,-1.009194 2.457231,-2.011468 0.244339,-0.503904 0.368239,-0.993966 0.424305,-1.70511 0.01218,-0.155046 0.0173,-2.62709 0.0173,-5.095811 0,-2.4691359 -0.0055,-4.9366107 -0.01772,-5.0916585 C 20.925525,6.1798256 20.801625,5.6939169 20.549395,5.1803211 20.342434,4.7598925 20.112631,4.4459207 19.779002,4.1248887 19.183591,3.5561956 18.45542,3.2101068 17.587706,3.0849611 c -0.420428,-0.060773 -0.504182,-0.07877 -2.65547,-0.082508 z"
     id="path7"
     style="fill:url(#c);stroke-width:0.138436" />
  <path
     fill="url(#d)"
     d="m 12.002941,3.0024535 c -3.7574176,0 -4.8563188,0.00388 -5.0699248,0.021596 C 6.1619304,3.0881451 5.6821128,3.209553 5.1593803,3.4698118 4.7565329,3.6698511 4.4388235,3.9017307 4.125267,4.2267773 3.5542204,4.8195582 3.2081316,5.5488365 3.0828475,6.4157197 c -0.060912,0.420844 -0.078631,0.5066741 -0.082231,2.6563008 -0.00138,0.7165424 0,1.6595645 0,2.9244505 0,3.754371 0.00416,4.852165 0.02215,5.065355 0.062296,0.750321 0.1799662,1.222386 0.4291502,1.73875 0.4762182,0.98843 1.3857396,1.730446 2.4572305,2.007316 0.3710072,0.09552 0.7807764,0.148126 1.3068313,0.173044 0.2228812,0.0097 2.4946081,0.01661 4.7677195,0.01661 2.273111,0 4.546222,-0.0028 4.763566,-0.01384 0.609116,-0.02866 0.962819,-0.07614 1.353899,-0.177199 1.078414,-0.278255 1.971322,-1.009194 2.457231,-2.011468 0.244339,-0.503904 0.368239,-0.993966 0.424305,-1.70511 0.01218,-0.155046 0.0173,-2.62709 0.0173,-5.095811 0,-2.4691359 -0.0055,-4.9366107 -0.01772,-5.0916585 C 20.925525,6.1798256 20.801625,5.6939169 20.549395,5.1803211 20.342434,4.7598925 20.112631,4.4459207 19.779002,4.1248887 19.183591,3.5561956 18.45542,3.2101068 17.587706,3.0849611 c -0.420428,-0.060773 -0.504182,-0.07877 -2.65547,-0.082508 z"
     id="path8"
     style="fill:url(#d);stroke-width:0.138436" />
  <path
     fill="#ffffff"
     d="m 12.000621,5.3550929 c -1.804645,0 -2.0311256,0.00789 -2.7399157,0.040146 C 8.5532998,5.4276331 8.0704367,5.5396275 7.6479314,5.7039504 7.2108905,5.8736723 6.8401601,6.1007066 6.4708142,6.470191 6.1011913,6.839537 5.8741571,7.2102673 5.7038813,7.6471698 5.5391431,8.0698135 5.4270103,8.5528151 5.3951701,9.2599438 c -0.031702,0.70879 -0.040008,0.9354082 -0.040008,2.7400542 0,1.804646 0.00803,2.030434 0.040146,2.739224 0.032532,0.707405 0.1445266,1.190269 0.3087112,1.612774 0.1698604,0.43704 0.3968946,0.807771 0.7663791,1.177116 0.3692075,0.369624 0.7399378,0.597211 1.1767019,0.766933 0.4227822,0.164323 0.9057837,0.276318 1.6130507,0.308712 0.70879,0.03226 0.935132,0.04015 2.739639,0.04015 1.804784,0 2.030573,-0.0079 2.739363,-0.04015 0.707406,-0.03239 1.190822,-0.144389 1.613604,-0.308712 0.436903,-0.169722 0.807079,-0.397309 1.176287,-0.766933 0.369623,-0.369345 0.596657,-0.740076 0.766933,-1.176978 0.163354,-0.422643 0.275486,-0.905645 0.308711,-1.612774 0.03184,-0.70879 0.04015,-0.934716 0.04015,-2.739362 0,-1.804646 -0.0083,-2.0311262 -0.04015,-2.7399158 C 18.571463,8.5526766 18.459331,8.0698135 18.295977,7.6473083 18.125701,7.2102673 17.898667,6.839537 17.529044,6.470191 17.159421,6.1005682 16.789798,5.8735339 16.352342,5.7039504 15.928729,5.5396275 15.445589,5.4276331 14.738184,5.3952392 c -0.70879,-0.032255 -0.93444,-0.040146 -2.739639,-0.040146 z m -0.596103,1.1974673 c 0.17692,-2.769e-4 0.374329,0 0.596103,0 1.77419,0 1.984473,0.00637 2.685096,0.038208 0.647878,0.029625 0.999504,0.1378818 1.233737,0.2288339 0.310096,0.1204389 0.531177,0.2644119 0.76361,0.4969835 0.232572,0.2325717 0.376545,0.4540685 0.497261,0.7641641 0.09095,0.233956 0.199347,0.5855823 0.228834,1.2334605 0.03184,0.7004848 0.03876,0.9109058 0.03876,2.6842648 0,1.773359 -0.0069,1.983781 -0.03876,2.684265 -0.02962,0.647879 -0.137882,0.999504 -0.228834,1.233461 -0.120439,0.310095 -0.264689,0.5309 -0.497261,0.763333 -0.232571,0.232571 -0.453376,0.376544 -0.76361,0.496983 -0.233956,0.09137 -0.585859,0.199347 -1.233737,0.228973 -0.700484,0.03184 -0.910906,0.03876 -2.685096,0.03876 -1.774328,0 -1.984611,-0.0069 -2.6850953,-0.03876 C 8.6676476,17.375587 8.3160212,17.267331 8.0816499,17.176379 7.7715543,17.05594 7.5500575,16.911967 7.3174858,16.679395 7.0849142,16.446824 6.9409412,16.225881 6.8202254,15.915646 6.7292733,15.681691 6.6208783,15.330064 6.5913915,14.682186 c -0.03184,-0.700484 -0.038208,-0.910905 -0.038208,-2.685372 0,-1.774466 0.00637,-1.983781 0.038208,-2.6842649 C 6.6210165,8.664671 6.7292733,8.3130446 6.8202254,8.0788118 6.9406643,7.7687162 7.0849142,7.5472193 7.3174858,7.3146477 7.5500575,7.082076 7.7715543,6.9381031 8.0816499,6.8173873 8.3158829,6.7260199 8.6676476,6.6180401 9.3155257,6.5882765 9.9285184,6.5605894 10.166073,6.5522833 11.404518,6.5508989 Z m 4.143098,1.1033311 c -0.440225,0 -0.797388,0.3567483 -0.797388,0.7971118 0,0.4402249 0.357163,0.7973885 0.797388,0.7973885 0.440225,0 0.797389,-0.3571636 0.797389,-0.7973885 0,-0.440225 -0.357164,-0.7973887 -0.797389,-0.7973887 z m -3.546995,0.931671 c -1.884522,0 -3.4124354,1.5279127 -3.4124354,3.4124357 0,1.884523 1.5279134,3.411744 3.4124354,3.411744 1.884523,0 3.411882,-1.527221 3.411882,-3.411744 0,-1.884523 -1.527497,-3.4124357 -3.41202,-3.4124357 z m 0,1.1974672 c 1.223216,0 2.214969,0.9916145 2.214969,2.2149685 0,1.223216 -0.991753,2.214968 -2.214969,2.214968 -1.223354,0 -2.2149678,-0.991752 -2.2149678,-2.214968 0,-1.223354 0.9916138,-2.2149685 2.2149678,-2.2149685 z"
     id="path9"
     style="stroke-width:0.138436" />
</svg>
